<?xml version="1.0" encoding="utf-8"?>
<!-- Generator: Adobe Illustrator 18.1.1, SVG Export Plug-In . SVG Version: 6.00 Build 0)  -->
<svg version="1.1" id="Layer_1" xmlns="http://www.w3.org/2000/svg" xmlns:xlink="http://www.w3.org/1999/xlink" x="0px" y="0px"
	 viewBox="0 0 1024 1024" enable-background="new 0 0 1024 1024" xml:space="preserve">
<path fill="#FFFFFF" d="M954,991.3H589c-19.9,0-36-16.1-36-36v-365c0-19.9,16.1-36,36-36h365c19.9,0,36,16.1,36,36v365
	C990,975.2,973.9,991.3,954,991.3z"/>
<path fill="#FFFFFF" d="M954,469.7H589c-19.9,0-36-16.1-36-36v-365c0-19.9,16.1-36,36-36h365c19.9,0,36,16.1,36,36v365
	C990,453.6,973.9,469.7,954,469.7z"/>
<path fill="#FFFFFF" d="M435,991.3H70c-19.9,0-36-16.1-36-36v-365c0-19.9,16.1-36,36-36h365c19.9,0,36,16.1,36,36v365
	C471,975.2,454.9,991.3,435,991.3z"/>
<path fill="#FFFFFF" d="M435,469.7H70c-19.9,0-36-16.1-36-36v-365c0-19.9,16.1-36,36-36h365c19.9,0,36,16.1,36,36v365
	C471,453.6,454.9,469.7,435,469.7z"/>
<g>
	<path fill="#662D91" d="M895.8,149.4L720.9,324.3l-73.7-73.7l-14.5,14.5l81,81l7.3,7l7.3-7l182.2-182.2L895.8,149.4z"/>
</g>
</svg>
